<svg xmlns="http://www.w3.org/2000/svg" xmlns:xlink="http://www.w3.org/1999/xlink" width="375" viewBox="0 0 375 375" height="375" version="1.0"><defs><g id="d"><path d="M 149.953125 2.296875 C 150.046875 2.296875 150.144531 2.296875 150.25 2.296875 C 150.46875 2.296875 150.691406 2.320312 150.921875 2.375 C 151.148438 2.425781 151.359375 2.546875 151.546875 2.734375 C 151.585938 2.796875 151.628906 2.863281 151.671875 2.9375 C 151.722656 3.019531 151.75 3.113281 151.75 3.21875 C 151.71875 3.28125 151.675781 3.347656 151.625 3.421875 C 151.570312 3.503906 151.515625 3.570312 151.453125 3.625 C 151.191406 3.675781 150.921875 3.6875 150.640625 3.65625 C 150.503906 3.65625 150.359375 3.65625 150.203125 3.65625 C 148.578125 3.5625 146.957031 3.445312 145.34375 3.3125 C 142.351562 3.09375 139.375 2.882812 136.40625 2.6875 C 124.132812 1.90625 112.015625 1.484375 100.046875 1.421875 C 88.085938 1.359375 75.957031 1.523438 63.65625 1.921875 C 62.363281 1.953125 61.066406 2.03125 59.765625 2.15625 C 58.546875 2.25 57.316406 2.3125 56.078125 2.34375 C 54.890625 2.382812 53.957031 2.90625 53.28125 3.90625 C 50.238281 7.945312 46.9375 11.78125 43.375 15.40625 C 40.875 17.96875 38.265625 20.265625 35.546875 22.296875 C 32.828125 24.335938 29.96875 25.957031 26.96875 27.15625 C 23.976562 28.351562 20.859375 28.945312 17.609375 28.9375 C 14.359375 28.925781 10.96875 28.125 7.4375 26.53125 C 5.789062 25.820312 4.332031 24.800781 3.0625 23.46875 C 1.019531 21.132812 0.796875 18.625 2.390625 15.9375 C 3.515625 14.195312 4.96875 12.757812 6.75 11.625 C 9.445312 9.851562 12.585938 8.347656 16.171875 7.109375 C 19.765625 5.867188 23.554688 4.863281 27.546875 4.09375 C 31.546875 3.320312 35.472656 2.707031 39.328125 2.25 C 43.179688 1.789062 46.695312 1.453125 49.875 1.234375 C 51.175781 1.128906 52.179688 0.5625 52.890625 -0.46875 C 55.503906 -4.257812 58.289062 -8.703125 61.25 -13.796875 C 64.21875 -18.898438 67.070312 -24.265625 69.8125 -29.890625 C 72.550781 -35.523438 74.90625 -41.003906 76.875 -46.328125 C 78.84375 -51.648438 80.164062 -56.445312 80.84375 -60.71875 C 81.039062 -62.007812 81 -63.304688 80.71875 -64.609375 C 80.1875 -66.679688 78.890625 -67.863281 76.828125 -68.15625 C 76.535156 -68.1875 76.257812 -68.203125 76 -68.203125 C 75.375 -68.203125 74.757812 -68.117188 74.15625 -67.953125 C 71.5 -67.410156 68.210938 -66.203125 64.296875 -64.328125 C 60.378906 -62.453125 56.269531 -60.117188 51.96875 -57.328125 C 47.664062 -54.546875 43.546875 -51.492188 39.609375 -48.171875 C 35.671875 -44.847656 32.335938 -41.472656 29.609375 -38.046875 C 26.890625 -34.617188 25.164062 -31.300781 24.4375 -28.09375 C 23.84375 -25.34375 24.8125 -23.335938 27.34375 -22.078125 C 29.375 -21.171875 31.539062 -20.773438 33.84375 -20.890625 C 36.144531 -21.003906 38.347656 -21.273438 40.453125 -21.703125 C 41.753906 -21.972656 43.050781 -22.109375 44.34375 -22.109375 C 44.882812 -22.109375 45.414062 -22.082031 45.9375 -22.03125 C 46.0625 -22.03125 46.179688 -21.988281 46.296875 -21.90625 C 46.421875 -21.820312 46.460938 -21.6875 46.421875 -21.5 C 46.359375 -21.175781 46.179688 -21 45.890625 -20.96875 C 44.109375 -20.800781 42.3125 -20.570312 40.5 -20.28125 C 38.289062 -19.882812 36.078125 -19.625 33.859375 -19.5 C 31.648438 -19.375 29.460938 -19.597656 27.296875 -20.171875 C 26.191406 -20.460938 25.171875 -20.921875 24.234375 -21.546875 C 21.960938 -23.054688 21.039062 -25.160156 21.46875 -27.859375 C 22.125 -31.285156 23.875 -34.84375 26.71875 -38.53125 C 29.5625 -42.226562 33.0625 -45.820312 37.21875 -49.3125 C 41.375 -52.8125 45.757812 -56.015625 50.375 -58.921875 C 54.988281 -61.835938 59.382812 -64.238281 63.5625 -66.125 C 67.738281 -68.019531 71.269531 -69.195312 74.15625 -69.65625 C 74.863281 -69.789062 75.570312 -69.84375 76.28125 -69.8125 C 77.519531 -69.84375 78.71875 -69.679688 79.875 -69.328125 C 82.007812 -68.648438 83.359375 -67.207031 83.921875 -65 C 84.398438 -62.632812 84.101562 -59.40625 83.03125 -55.3125 C 81.96875 -51.21875 80.398438 -46.660156 78.328125 -41.640625 C 76.253906 -36.628906 73.945312 -31.585938 71.40625 -26.515625 C 68.875 -21.453125 66.398438 -16.789062 63.984375 -12.53125 C 61.566406 -8.28125 59.484375 -4.859375 57.734375 -2.265625 C 57.253906 -1.578125 56.785156 -0.878906 56.328125 -0.171875 C 56.234375 0.015625 56.234375 0.1875 56.328125 0.34375 C 56.429688 0.507812 56.59375 0.59375 56.8125 0.59375 L 56.859375 0.59375 C 57.441406 0.59375 58.03125 0.578125 58.625 0.546875 C 60.332031 0.492188 62.046875 0.414062 63.765625 0.3125 C 67.378906 0.144531 71.003906 0.0078125 74.640625 -0.09375 C 99.796875 -0.820312 124.898438 -0.0234375 149.953125 2.296875 Z M 47.546875 6.53125 C 47.703125 6.320312 47.878906 6.109375 48.078125 5.890625 C 48.398438 5.503906 48.726562 5.082031 49.0625 4.625 C 49.40625 4.175781 49.707031 3.644531 49.96875 3.03125 C 49.675781 3.03125 49.40625 3.03125 49.15625 3.03125 C 49.050781 3.03125 48.945312 3.03125 48.84375 3.03125 C 48.726562 3.03125 48.585938 3.03125 48.421875 3.03125 C 47.378906 3.15625 46.328125 3.285156 45.265625 3.421875 C 43.898438 3.578125 42.539062 3.738281 41.1875 3.90625 C 38.039062 4.195312 34.394531 4.722656 30.25 5.484375 C 26.101562 6.242188 22.039062 7.273438 18.0625 8.578125 C 14.082031 9.890625 10.8125 11.535156 8.25 13.515625 C 7.382812 14.203125 6.59375 14.976562 5.875 15.84375 C 3.738281 18.539062 3.953125 21.019531 6.515625 23.28125 C 9.453125 25.664062 12.484375 26.972656 15.609375 27.203125 C 18.742188 27.429688 21.851562 26.882812 24.9375 25.5625 C 28.03125 24.238281 30.984375 22.460938 33.796875 20.234375 C 36.617188 18.015625 39.203125 15.679688 41.546875 13.234375 C 43.898438 10.796875 45.898438 8.5625 47.546875 6.53125 Z M 47.546875 6.53125"/></g><g id="e"><path d="M 3.515625 -5.234375 L 3.4375 -5.234375 C 1.3125 -5.265625 -0.0859375 -5.738281 -0.765625 -6.65625 C -1.441406 -7.570312 -1.414062 -8.796875 -0.6875 -10.328125 C -0.0625 -11.492188 0.71875 -12.507812 1.65625 -13.375 C 1.976562 -13.664062 2.304688 -13.898438 2.640625 -14.078125 C 2.984375 -14.253906 3.367188 -14.34375 3.796875 -14.34375 C 4.046875 -14.382812 4.332031 -14.34375 4.65625 -14.21875 C 4.757812 -14.1875 4.863281 -14.148438 4.96875 -14.109375 C 5.21875 -14.148438 5.457031 -14.226562 5.6875 -14.34375 C 5.75 -14.382812 5.832031 -14.421875 5.9375 -14.453125 C 6.425781 -14.648438 6.941406 -14.734375 7.484375 -14.703125 C 7.703125 -14.703125 7.929688 -14.703125 8.171875 -14.703125 C 9.035156 -14.566406 9.6875 -14.203125 10.125 -13.609375 C 10.570312 -13.015625 10.726562 -12.289062 10.59375 -11.4375 C 10.519531 -10.914062 10.359375 -10.425781 10.109375 -9.96875 C 8.421875 -6.9375 6.265625 -5.359375 3.640625 -5.234375 Z M 7 -13.125 C 5.832031 -13.175781 4.796875 -12.84375 3.890625 -12.125 C 2.984375 -11.414062 2.3125 -10.597656 1.875 -9.671875 C 1.4375 -8.742188 1.316406 -7.976562 1.515625 -7.375 C 1.710938 -6.78125 2.328125 -6.617188 3.359375 -6.890625 C 4.515625 -7.242188 5.535156 -7.90625 6.421875 -8.875 C 7.316406 -9.84375 7.863281 -10.765625 8.0625 -11.640625 C 8.257812 -12.515625 7.90625 -13.007812 7 -13.125 Z M 7 -13.125"/></g><g id="f"><path d="M 17.328125 -11.515625 C 17.515625 -11.140625 17.195312 -10.5625 16.375 -9.78125 C 15.550781 -9.007812 14.101562 -8.070312 12.03125 -6.96875 C 11.25 -6.644531 10.679688 -6.390625 10.328125 -6.203125 C 9.972656 -6.015625 9.710938 -5.769531 9.546875 -5.46875 C 9.390625 -5.175781 9.21875 -4.722656 9.03125 -4.109375 C 8.863281 -3.648438 8.648438 -3.035156 8.390625 -2.265625 C 8.035156 -1.328125 7.679688 -0.359375 7.328125 0.640625 C 6.679688 2.679688 5.910156 4.695312 5.015625 6.6875 C 4.128906 8.6875 2.976562 10.425781 1.5625 11.90625 C 0.15625 13.394531 -1.660156 14.382812 -3.890625 14.875 C -6.117188 15.300781 -8.28125 15.367188 -10.375 15.078125 C -12.46875 14.785156 -14.515625 14.203125 -16.515625 13.328125 C -17.316406 12.960938 -18.039062 12.476562 -18.6875 11.875 C -19.769531 10.769531 -19.851562 9.535156 -18.9375 8.171875 C -18.445312 7.492188 -17.878906 6.878906 -17.234375 6.328125 C -15.941406 5.285156 -14.585938 4.332031 -13.171875 3.46875 C -10.535156 1.875 -7.84375 0.414062 -5.09375 -0.90625 C -2.34375 -2.226562 0.4375 -3.507812 3.25 -4.75 C 3.4375 -4.832031 3.648438 -4.925781 3.890625 -5.03125 C 4.648438 -5.382812 5.4375 -5.738281 6.25 -6.09375 C 6.800781 -6.300781 7.175781 -6.675781 7.375 -7.21875 C 7.425781 -7.40625 7.441406 -7.582031 7.421875 -7.75 C 7.390625 -7.851562 7.332031 -7.910156 7.25 -7.921875 C 7.164062 -7.941406 7.070312 -7.921875 6.96875 -7.859375 C 6.695312 -7.691406 6.410156 -7.507812 6.109375 -7.3125 C 5.953125 -7.21875 5.773438 -7.101562 5.578125 -6.96875 C 4.566406 -6.382812 3.515625 -6.128906 2.421875 -6.203125 C 0.703125 -6.203125 -0.171875 -6.972656 -0.203125 -8.515625 C -0.234375 -9.785156 -0.0195312 -10.984375 0.4375 -12.109375 C 0.90625 -13.242188 1.566406 -14.3125 2.421875 -15.3125 C 2.515625 -15.414062 2.640625 -15.5 2.796875 -15.5625 C 2.960938 -15.632812 3.125 -15.6875 3.28125 -15.71875 C 3.3125 -15.71875 3.351562 -15.734375 3.40625 -15.765625 C 3.726562 -15.785156 3.976562 -15.703125 4.15625 -15.515625 C 4.332031 -15.328125 4.367188 -15.082031 4.265625 -14.78125 C 4.066406 -14.375 3.875 -13.957031 3.6875 -13.53125 C 3.519531 -13.207031 3.359375 -12.882812 3.203125 -12.5625 C 2.554688 -11.289062 2.257812 -9.96875 2.3125 -8.59375 C 2.34375 -8.289062 2.472656 -8.070312 2.703125 -7.9375 C 2.929688 -7.8125 3.191406 -7.816406 3.484375 -7.953125 C 4.359375 -8.296875 5.117188 -8.796875 5.765625 -9.453125 C 7.515625 -11.035156 8.957031 -12.863281 10.09375 -14.9375 C 10.25 -15.238281 10.429688 -15.488281 10.640625 -15.6875 C 10.859375 -15.894531 11.144531 -16.015625 11.5 -16.046875 C 11.957031 -16.085938 12.304688 -15.988281 12.546875 -15.75 C 12.785156 -15.507812 12.851562 -15.1875 12.75 -14.78125 C 12.34375 -13.457031 11.910156 -12.148438 11.453125 -10.859375 C 11.421875 -10.753906 11.382812 -10.660156 11.34375 -10.578125 C 11.226562 -10.273438 11.117188 -9.960938 11.015625 -9.640625 C 10.910156 -9.316406 10.859375 -9.035156 10.859375 -8.796875 C 10.859375 -8.554688 10.960938 -8.4375 11.171875 -8.4375 C 11.972656 -8.59375 13.148438 -9.238281 14.703125 -10.375 C 16.265625 -11.507812 17.140625 -11.890625 17.328125 -11.515625 Z M 5.765625 -2.65625 C 5.765625 -2.726562 5.785156 -2.789062 5.828125 -2.84375 C 5.910156 -3.007812 5.957031 -3.1875 5.96875 -3.375 C 5.988281 -3.5625 5.941406 -3.757812 5.828125 -3.96875 C 5.722656 -3.96875 5.640625 -3.96875 5.578125 -3.96875 C 5.378906 -3.925781 5.195312 -3.875 5.03125 -3.8125 C 4.707031 -3.6875 4.382812 -3.539062 4.0625 -3.375 C 1.46875 -2.1875 -1.117188 -0.960938 -3.703125 0.296875 C -6.296875 1.566406 -8.835938 2.914062 -11.328125 4.34375 C -12.835938 5.21875 -14.265625 6.234375 -15.609375 7.390625 C -16.691406 8.359375 -17.210938 9.207031 -17.171875 9.9375 C -17.128906 10.664062 -16.488281 11.328125 -15.25 11.921875 C -12.4375 13.378906 -9.414062 13.972656 -6.1875 13.703125 C -3.976562 13.484375 -2.179688 12.648438 -0.796875 11.203125 C 0.578125 9.765625 1.703125 8.039062 2.578125 6.03125 C 3.453125 4.03125 4.210938 2.023438 4.859375 0.015625 C 5.140625 -0.921875 5.441406 -1.8125 5.765625 -2.65625 Z M 5.765625 -2.65625"/></g><g id="g"><path d="M 10.734375 -9.59375 L 8.9375 -9.640625 C 7.125 -9.703125 5.144531 -9.851562 3 -10.09375 C 2.96875 -10.09375 2.9375 -10.117188 2.90625 -10.171875 C 2.851562 -10.171875 2.804688 -10.195312 2.765625 -10.25 C 2.734375 -10.300781 2.734375 -10.410156 2.765625 -10.578125 C 2.921875 -11.253906 3.160156 -11.601562 3.484375 -11.625 C 5.203125 -11.863281 6.90625 -12 8.59375 -12.03125 L 9.625 -12.078125 L 16.421875 -12.078125 C 16.804688 -12.078125 17.175781 -12.046875 17.53125 -11.984375 C 17.789062 -11.910156 17.828125 -11.535156 17.640625 -10.859375 C 17.429688 -10.179688 17.1875 -9.804688 16.90625 -9.734375 C 16.769531 -9.703125 16.640625 -9.6875 16.515625 -9.6875 L 15.453125 -9.6875 C 13.953125 -9.625 12.378906 -9.59375 10.734375 -9.59375 Z M 10.734375 -9.59375"/></g><g id="h"><path d="M 10.6875 -10.53125 C 11.164062 -11.007812 11.566406 -11.28125 11.890625 -11.34375 C 12.210938 -11.40625 12.421875 -11.351562 12.515625 -11.1875 C 12.617188 -11.03125 12.5625 -10.8125 12.34375 -10.53125 C 11.039062 -8.96875 9.585938 -7.617188 7.984375 -6.484375 C 6.378906 -5.359375 4.726562 -4.707031 3.03125 -4.53125 C 1.332031 -4.351562 0.304688 -5.28125 -0.046875 -7.3125 C -0.304688 -9.320312 0.914062 -13.425781 3.625 -19.625 C 6.332031 -25.820312 8.472656 -30.894531 10.046875 -34.84375 C 10.171875 -35.195312 10.367188 -35.507812 10.640625 -35.78125 C 10.992188 -36.132812 11.410156 -36.210938 11.890625 -36.015625 C 12.054688 -35.941406 12.21875 -35.820312 12.375 -35.65625 C 12.539062 -35.5 12.59375 -35.21875 12.53125 -34.8125 C 5.570312 -18.300781 2.203125 -9.320312 2.421875 -7.875 C 2.648438 -6.4375 3.582031 -6.082031 5.21875 -6.8125 C 6.863281 -7.539062 8.128906 -8.28125 9.015625 -9.03125 C 9.910156 -9.789062 10.46875 -10.289062 10.6875 -10.53125 Z M 10.6875 -10.53125"/></g><g id="i"><path d="M 16.015625 -11.25 C 16.359375 -11.050781 16.382812 -10.566406 16.09375 -9.796875 C 15.664062 -9.242188 15.207031 -8.722656 14.71875 -8.234375 C 14.238281 -7.742188 13.707031 -7.3125 13.125 -6.9375 C 13.082031 -6.9375 13.0625 -6.921875 13.0625 -6.890625 C 12.6875 -6.617188 12.285156 -6.390625 11.859375 -6.203125 C 8.335938 -4.929688 6.539062 -5.675781 6.46875 -8.4375 C 5.039062 -7.195312 4.082031 -6.4375 3.59375 -6.15625 C 2.4375 -5.46875 1.179688 -5.160156 -0.171875 -5.234375 C -1.171875 -5.285156 -1.851562 -5.585938 -2.21875 -6.140625 C -2.582031 -6.691406 -2.550781 -7.441406 -2.125 -8.390625 C -1.46875 -9.867188 -0.546875 -11.191406 0.640625 -12.359375 C 2.035156 -13.648438 3.585938 -14.6875 5.296875 -15.46875 C 6.210938 -15.925781 7.171875 -16.101562 8.171875 -16 C 9.171875 -15.9375 9.769531 -15.367188 9.96875 -14.296875 C 10.0625 -13.972656 9.984375 -13.6875 9.734375 -13.4375 C 9.410156 -13.144531 9.035156 -13.082031 8.609375 -13.25 C 8.578125 -13.25 8.535156 -13.253906 8.484375 -13.265625 C 8.429688 -13.273438 8.390625 -13.296875 8.359375 -13.328125 C 7.929688 -13.921875 7.5 -14.164062 7.0625 -14.0625 C 6.632812 -13.96875 6.175781 -13.773438 5.6875 -13.484375 C 3.425781 -12.160156 1.742188 -10.316406 0.640625 -7.953125 C 0.578125 -7.847656 0.535156 -7.734375 0.515625 -7.609375 C 0.503906 -7.484375 0.546875 -7.382812 0.640625 -7.3125 C 0.898438 -7.21875 1.191406 -7.234375 1.515625 -7.359375 C 1.847656 -7.484375 2.175781 -7.664062 2.5 -7.90625 C 2.820312 -8.15625 3.09375 -8.359375 3.3125 -8.515625 C 3.34375 -8.566406 3.359375 -8.59375 3.359375 -8.59375 C 4.429688 -9.488281 5.484375 -10.40625 6.515625 -11.34375 C 6.972656 -11.832031 7.535156 -12.101562 8.203125 -12.15625 C 9.179688 -12.15625 9.585938 -11.722656 9.421875 -10.859375 C 9.335938 -10.535156 9.242188 -10.210938 9.140625 -9.890625 C 8.753906 -8.492188 8.738281 -7.671875 9.09375 -7.421875 C 9.445312 -7.179688 9.988281 -7.179688 10.71875 -7.421875 C 11.445312 -7.671875 12.175781 -8.132812 12.90625 -8.8125 C 13.632812 -9.5 14.25 -10.125 14.75 -10.6875 C 15.25 -11.257812 15.671875 -11.445312 16.015625 -11.25 Z M 16.015625 -11.25"/></g><g id="j"><path d="M 11.296875 -35.046875 C 11.367188 -35.171875 11.523438 -35.269531 11.765625 -35.34375 C 12.015625 -35.425781 12.265625 -35.484375 12.515625 -35.515625 C 12.773438 -35.554688 13 -35.550781 13.1875 -35.5 C 13.382812 -35.445312 13.46875 -35.359375 13.4375 -35.234375 C 13.28125 -34.554688 13.039062 -33.890625 12.71875 -33.234375 C 12.6875 -33.148438 12.632812 -33.039062 12.5625 -32.90625 C 11.34375 -30.082031 10.097656 -27.28125 8.828125 -24.5 C 8.640625 -24.082031 8.460938 -23.675781 8.296875 -23.28125 C 7.835938 -22.34375 7.269531 -21.195312 6.59375 -19.84375 C 5.84375 -18.414062 5.195312 -17.101562 4.65625 -15.90625 C 5.164062 -16.53125 5.8125 -16.984375 6.59375 -17.265625 C 7.375 -17.554688 7.972656 -17.703125 8.390625 -17.703125 C 9.953125 -17.671875 10.8125 -16.898438 10.96875 -15.390625 C 11.21875 -13.660156 10.90625 -11.90625 10.03125 -10.125 C 9.164062 -8.34375 8.019531 -6.890625 6.59375 -5.765625 C 5.394531 -5.085938 4.253906 -4.785156 3.171875 -4.859375 C 2.085938 -4.941406 1.125 -5.46875 0.28125 -6.4375 C 0.175781 -6.4375 0.0703125 -6.390625 -0.03125 -6.296875 C -0.144531 -6.203125 -0.265625 -6.085938 -0.390625 -5.953125 C -0.554688 -5.765625 -0.734375 -5.617188 -0.921875 -5.515625 C -1.054688 -5.453125 -1.195312 -5.4375 -1.34375 -5.46875 C -1.488281 -5.5 -1.609375 -5.546875 -1.703125 -5.609375 C -2.023438 -5.867188 -2.128906 -6.191406 -2.015625 -6.578125 C -0.773438 -9.816406 0.675781 -13.1875 2.34375 -16.6875 C 4.019531 -20.1875 5.695312 -23.597656 7.375 -26.921875 C 8.082031 -28.410156 8.78125 -29.851562 9.46875 -31.25 C 9.75 -31.800781 10.019531 -32.367188 10.28125 -32.953125 C 10.601562 -33.628906 10.941406 -34.328125 11.296875 -35.046875 Z M 5.765625 -15.03125 C 4.628906 -14.21875 3.648438 -13.226562 2.828125 -12.0625 C 2.003906 -10.90625 1.707031 -9.679688 1.9375 -8.390625 C 2.0625 -7.640625 2.363281 -7.109375 2.84375 -6.796875 C 3.332031 -6.484375 3.898438 -6.59375 4.546875 -7.125 C 5.191406 -7.726562 5.835938 -8.484375 6.484375 -9.390625 C 7.128906 -10.304688 7.65625 -11.28125 8.0625 -12.3125 C 8.382812 -13.226562 8.578125 -14.023438 8.640625 -14.703125 C 8.703125 -15.378906 8.519531 -15.789062 8.09375 -15.9375 C 7.664062 -16.082031 6.890625 -15.78125 5.765625 -15.03125 Z M 5.765625 -15.03125"/></g><g id="k"><path d="M 12.578125 -8.46875 C 11.722656 -7.632812 10.726562 -6.914062 9.59375 -6.3125 C 8.46875 -5.71875 7.519531 -5.328125 6.75 -5.140625 C 5.988281 -4.960938 5.203125 -4.859375 4.390625 -4.828125 C 3.097656 -4.773438 1.90625 -4.953125 0.8125 -5.359375 C -0.96875 -6.078125 -1.582031 -7.453125 -1.03125 -9.484375 C -0.519531 -11.242188 0.519531 -12.613281 2.09375 -13.59375 C 3.664062 -14.582031 5.289062 -15.0625 6.96875 -15.03125 C 6.96875 -15.03125 6.984375 -15.03125 7.015625 -15.03125 C 7.441406 -15.0625 7.847656 -15.03125 8.234375 -14.9375 C 8.878906 -14.707031 9.289062 -14.328125 9.46875 -13.796875 C 9.644531 -13.265625 9.523438 -12.675781 9.109375 -12.03125 C 8.171875 -10.601562 6.894531 -9.804688 5.28125 -9.640625 C 4.195312 -9.535156 3.15625 -9.585938 2.15625 -9.796875 C 1.96875 -9.828125 1.800781 -9.773438 1.65625 -9.640625 C 1.507812 -9.515625 1.421875 -9.351562 1.390625 -9.15625 C 1.097656 -7.894531 1.488281 -7.085938 2.5625 -6.734375 C 3.882812 -6.273438 5.257812 -6.273438 6.6875 -6.734375 C 8.332031 -7.242188 9.898438 -8.210938 11.390625 -9.640625 C 12.878906 -11.066406 13.734375 -11.734375 13.953125 -11.640625 C 14.179688 -11.546875 14.253906 -11.269531 14.171875 -10.8125 C 13.960938 -10.09375 13.429688 -9.3125 12.578125 -8.46875 Z M 3.171875 -12.03125 C 3.085938 -11.925781 3.023438 -11.8125 2.984375 -11.6875 C 2.953125 -11.5625 3.003906 -11.445312 3.140625 -11.34375 C 3.648438 -11.050781 4.207031 -10.941406 4.8125 -11.015625 C 5.414062 -11.097656 5.925781 -11.328125 6.34375 -11.703125 C 6.757812 -12.078125 6.941406 -12.539062 6.890625 -13.09375 C 6.835938 -13.28125 6.726562 -13.398438 6.5625 -13.453125 C 6.40625 -13.503906 6.25 -13.515625 6.09375 -13.484375 C 5 -13.296875 4.023438 -12.8125 3.171875 -12.03125 Z M 3.171875 -12.03125"/></g><g id="l"><path d="M 82.3125 -34.359375 C 82.144531 -34.335938 81.960938 -34.335938 81.765625 -34.359375 C 81.578125 -34.390625 81.40625 -34.472656 81.25 -34.609375 C 81.050781 -34.796875 80.96875 -34.96875 81 -35.125 C 81.03125 -35.289062 81.097656 -35.441406 81.203125 -35.578125 C 82.742188 -38.066406 84.082031 -40.671875 85.21875 -43.390625 C 85.9375 -45.066406 86.570312 -46.796875 87.125 -48.578125 C 87.46875 -49.679688 87.492188 -50.867188 87.203125 -52.140625 C 86.921875 -53.492188 86.113281 -54.445312 84.78125 -55 C 83.75 -55.382812 82.695312 -55.59375 81.625 -55.625 C 81.425781 -55.625 81.234375 -55.625 81.046875 -55.625 C 78.785156 -55.53125 76.585938 -55.207031 74.453125 -54.65625 C 70.753906 -53.75 67.179688 -52.628906 63.734375 -51.296875 C 60.285156 -49.972656 56.910156 -48.523438 53.609375 -46.953125 C 39.148438 -39.910156 26.203125 -31.019531 14.765625 -20.28125 C 11.878906 -17.695312 9.359375 -14.800781 7.203125 -11.59375 C 6.441406 -10.457031 5.773438 -9.253906 5.203125 -7.984375 C 4.878906 -7.285156 4.65625 -6.53125 4.53125 -5.71875 C 4.039062 -3.09375 5.171875 -1.132812 7.921875 0.15625 C 10.242188 1.226562 12.609375 1.832031 15.015625 1.96875 C 16.890625 2.125 18.71875 2.203125 20.5 2.203125 C 21.34375 2.203125 22.15625 2.164062 22.9375 2.09375 C 34.257812 1.976562 44.957031 0.507812 55.03125 -2.3125 C 55.1875 -2.375 55.347656 -2.421875 55.515625 -2.453125 C 56.191406 -2.679688 56.90625 -2.863281 57.65625 -3 C 57.84375 -3.03125 58.160156 -3.0625 58.609375 -3.09375 C 59.054688 -3.125 59.484375 -3.097656 59.890625 -3.015625 C 60.296875 -2.929688 60.550781 -2.742188 60.65625 -2.453125 C 60.6875 -2.285156 60.660156 -2.160156 60.578125 -2.078125 C 60.492188 -2.003906 60.375 -1.953125 60.21875 -1.921875 C 59.59375 -1.753906 58.976562 -1.59375 58.375 -1.4375 C 56.550781 -0.945312 54.734375 -0.472656 52.921875 -0.015625 C 42.722656 2.597656 32.140625 3.867188 21.171875 3.796875 C 18.898438 3.796875 16.632812 3.75 14.375 3.65625 C 11.820312 3.5625 9.265625 3.023438 6.703125 2.046875 C 1.617188 0.078125 -0.15625 -3.171875 1.375 -7.703125 C 1.988281 -9.515625 2.863281 -11.1875 4 -12.71875 C 5.570312 -14.976562 7.3125 -17.078125 9.21875 -19.015625 C 11.132812 -20.960938 13.128906 -22.84375 15.203125 -24.65625 C 24.460938 -32.800781 34.644531 -39.804688 45.75 -45.671875 C 49.15625 -47.453125 52.617188 -49.109375 56.140625 -50.640625 C 59.660156 -52.179688 63.296875 -53.539062 67.046875 -54.71875 C 70.203125 -55.71875 73.441406 -56.472656 76.765625 -56.984375 C 78.109375 -57.179688 79.441406 -57.28125 80.765625 -57.28125 C 81.628906 -57.28125 82.503906 -57.25 83.390625 -57.1875 C 84.421875 -57.082031 85.453125 -56.867188 86.484375 -56.546875 C 89.273438 -55.546875 90.703125 -53.703125 90.765625 -51.015625 C 90.765625 -49.816406 90.601562 -48.664062 90.28125 -47.5625 C 89.601562 -45.425781 88.769531 -43.375 87.78125 -41.40625 C 86.789062 -39.4375 85.726562 -37.507812 84.59375 -35.625 C 84.269531 -34.976562 83.75 -34.554688 83.03125 -34.359375 C 82.8125 -34.335938 82.609375 -34.335938 82.421875 -34.359375 Z M 82.3125 -34.359375"/></g><g id="m"><path d="M 23.0625 -11.0625 C 23.582031 -11.382812 23.988281 -11.460938 24.28125 -11.296875 C 24.570312 -11.140625 24.460938 -10.6875 23.953125 -9.9375 C 23.304688 -9.0625 22.144531 -8.128906 20.46875 -7.140625 C 18.800781 -6.160156 17.328125 -5.734375 16.046875 -5.859375 C 14.765625 -5.984375 14.390625 -6.925781 14.921875 -8.6875 C 15.460938 -10.457031 15.753906 -11.445312 15.796875 -11.65625 C 15.847656 -11.875 15.8125 -12 15.6875 -12.03125 C 15.5625 -12.0625 15.269531 -11.914062 14.8125 -11.59375 C 13.488281 -10.675781 12.191406 -9.71875 10.921875 -8.71875 C 10.378906 -8.300781 9.84375 -7.867188 9.3125 -7.421875 C 8.988281 -7.117188 8.648438 -6.820312 8.296875 -6.53125 C 8.296875 -6.53125 8.28125 -6.515625 8.25 -6.484375 C 7.875 -6.109375 7.40625 -5.851562 6.84375 -5.71875 C 6.59375 -5.644531 6.328125 -5.617188 6.046875 -5.640625 C 5.765625 -5.660156 5.53125 -5.765625 5.34375 -5.953125 C 5.125 -6.179688 5.039062 -6.414062 5.09375 -6.65625 C 5.15625 -6.894531 5.335938 -7.253906 5.640625 -7.734375 C 5.953125 -8.222656 6.296875 -8.757812 6.671875 -9.34375 C 7.046875 -9.925781 7.253906 -10.28125 7.296875 -10.40625 C 7.347656 -10.539062 7.328125 -10.675781 7.234375 -10.8125 C 7.128906 -10.945312 7.015625 -10.988281 6.890625 -10.9375 C 6.765625 -10.882812 6.296875 -10.566406 5.484375 -9.984375 C 4.679688 -9.398438 3.582031 -8.585938 2.1875 -7.546875 C 1.539062 -7.054688 0.90625 -6.554688 0.28125 -6.046875 C 0.125 -5.890625 -0.0507812 -5.742188 -0.25 -5.609375 C -0.695312 -5.222656 -1.195312 -5.015625 -1.75 -4.984375 C -2.144531 -4.953125 -2.4375 -5.039062 -2.625 -5.25 C -2.8125 -5.457031 -2.84375 -5.738281 -2.71875 -6.09375 C -2.625 -6.351562 -2.515625 -6.59375 -2.390625 -6.8125 C -2.304688 -6.914062 -2.253906 -7.019531 -2.234375 -7.125 C -1.066406 -9.476562 0.0820312 -11.84375 1.21875 -14.21875 C 1.25 -14.269531 1.273438 -14.347656 1.296875 -14.453125 C 1.429688 -14.703125 1.566406 -14.945312 1.703125 -15.1875 C 2.054688 -15.570312 2.472656 -15.695312 2.953125 -15.5625 C 3.515625 -15.394531 3.726562 -15.070312 3.59375 -14.59375 C 3.332031 -13.851562 3.078125 -13.125 2.828125 -12.40625 C 2.691406 -12.082031 2.554688 -11.757812 2.421875 -11.4375 C 2.203125 -10.863281 2.132812 -10.492188 2.21875 -10.328125 C 2.300781 -10.171875 2.664062 -10.28125 3.3125 -10.65625 C 3.75 -10.957031 4.179688 -11.253906 4.609375 -11.546875 C 5.128906 -11.898438 5.628906 -12.222656 6.109375 -12.515625 C 6.859375 -12.972656 7.625 -13.363281 8.40625 -13.6875 C 8.789062 -13.84375 9.1875 -13.960938 9.59375 -14.046875 C 10 -14.128906 10.378906 -14.035156 10.734375 -13.765625 C 10.992188 -13.546875 11.101562 -13.296875 11.0625 -13.015625 C 11.03125 -12.742188 10.957031 -12.484375 10.84375 -12.234375 C 10.632812 -11.742188 10.546875 -11.429688 10.578125 -11.296875 C 10.617188 -11.171875 10.734375 -11.144531 10.921875 -11.21875 C 11.117188 -11.300781 11.457031 -11.488281 11.9375 -11.78125 C 12.425781 -12.082031 12.953125 -12.40625 13.515625 -12.75 C 14.210938 -13.207031 14.953125 -13.644531 15.734375 -14.0625 C 16.378906 -14.488281 17.070312 -14.742188 17.8125 -14.828125 C 18.820312 -14.898438 19.234375 -14.488281 19.046875 -13.59375 C 18.867188 -12.707031 18.515625 -11.648438 17.984375 -10.421875 C 17.453125 -9.203125 17.394531 -8.453125 17.8125 -8.171875 C 18.238281 -7.890625 19.171875 -8.265625 20.609375 -9.296875 C 22.054688 -10.335938 22.875 -10.925781 23.0625 -11.0625 Z M 23.0625 -11.0625"/></g><g id="n"><path d="M 10.59375 -13.546875 C 10.457031 -12.535156 9.976562 -11.875 9.15625 -11.5625 C 8.332031 -11.257812 8.0625 -11.664062 8.34375 -12.78125 C 8.632812 -13.894531 8.132812 -14.175781 6.84375 -13.625 C 5.550781 -13.070312 4.484375 -12.378906 3.640625 -11.546875 C 2.347656 -10.222656 1.203125 -8.796875 0.203125 -7.265625 C 0.0976562 -7.128906 0.015625 -7.019531 -0.046875 -6.9375 C -0.335938 -6.507812 -0.628906 -6.101562 -0.921875 -5.71875 C -1.117188 -5.445312 -1.34375 -5.28125 -1.59375 -5.21875 C -1.851562 -5.15625 -2.117188 -5.144531 -2.390625 -5.1875 C -2.640625 -5.21875 -2.828125 -5.3125 -2.953125 -5.46875 C -3.085938 -5.632812 -3.101562 -5.828125 -3 -6.046875 C -2.84375 -6.441406 -2.648438 -6.847656 -2.421875 -7.265625 C -1.097656 -9.722656 0.242188 -12.1875 1.609375 -14.65625 C 1.640625 -14.6875 1.65625 -14.71875 1.65625 -14.75 C 1.84375 -15.125 2.070312 -15.472656 2.34375 -15.796875 C 2.632812 -16.117188 2.96875 -16.25 3.34375 -16.1875 C 3.726562 -16.132812 3.988281 -15.910156 4.125 -15.515625 C 4.289062 -15.003906 4.429688 -14.710938 4.546875 -14.640625 C 4.660156 -14.578125 4.925781 -14.625 5.34375 -14.78125 C 6.226562 -15.113281 7.085938 -15.34375 7.921875 -15.46875 C 8.765625 -15.601562 9.453125 -15.570312 9.984375 -15.375 C 10.523438 -15.175781 10.726562 -14.566406 10.59375 -13.546875 Z M 10.59375 -13.546875"/></g><g id="o"><path d="M 15.90625 -11.5 C 15.988281 -11.5 16.078125 -11.476562 16.171875 -11.4375 C 16.265625 -11.40625 16.34375 -11.359375 16.40625 -11.296875 C 16.601562 -11.109375 16.625 -10.878906 16.46875 -10.609375 C 16.257812 -10.390625 16.0625 -10.203125 15.875 -10.046875 C 14.738281 -8.992188 13.476562 -8.117188 12.09375 -7.421875 C 9.914062 -6.316406 7.519531 -5.75 4.90625 -5.71875 C 3.925781 -5.6875 2.921875 -5.847656 1.890625 -6.203125 C 0.015625 -6.941406 -0.742188 -8.300781 -0.390625 -10.28125 C 0.0351562 -12.125 1.070312 -13.648438 2.71875 -14.859375 C 4.363281 -16.078125 6.128906 -16.601562 8.015625 -16.4375 C 8.367188 -16.382812 8.722656 -16.304688 9.078125 -16.203125 C 9.398438 -16.066406 9.640625 -15.867188 9.796875 -15.609375 C 9.960938 -15.359375 9.976562 -15.148438 9.84375 -14.984375 C 9.488281 -14.597656 9.082031 -14.503906 8.625 -14.703125 C 7.945312 -14.992188 7.328125 -15.070312 6.765625 -14.9375 C 6.203125 -14.8125 5.628906 -14.503906 5.046875 -14.015625 C 4.492188 -13.585938 3.890625 -12.96875 3.234375 -12.15625 C 2.585938 -11.351562 2.175781 -10.535156 2 -9.703125 C 1.832031 -8.878906 2.203125 -8.210938 3.109375 -7.703125 C 4.140625 -7.242188 5.191406 -7.132812 6.265625 -7.375 C 8.941406 -7.914062 11.429688 -8.929688 13.734375 -10.421875 C 13.929688 -10.523438 14.113281 -10.640625 14.28125 -10.765625 C 14.53125 -10.960938 14.78125 -11.125 15.03125 -11.25 C 15.289062 -11.375 15.582031 -11.457031 15.90625 -11.5 Z M 15.90625 -11.5"/></g><clipPath id="a"><path d="M 177 88.5 L 207 88.5 L 207 154 L 177 154 Z M 177 88.5"/></clipPath><clipPath id="b"><path d="M 195 182 L 266.527344 182 L 266.527344 213.679688 L 195 213.679688 Z M 195 182"/></clipPath><clipPath id="c"><path d="M 116.535156 203 L 137 203 L 137 214.230469 L 116.535156 214.230469 Z M 116.535156 203"/></clipPath></defs><path fill="#1B1919" d="M 191.09375 131.992188 L 190.976562 141.257812 L 191.890625 158.996094 L 192.40625 141.25 L 191.984375 131.972656 Z M 192.210938 165.328125 L 191.726562 165.328125 L 191.703125 165.085938 L 190.472656 141.269531 L 190.59375 131.5 L 192.46875 131.453125 L 192.910156 141.246094 L 192.210938 165.328125"/><path fill="#1B1919" d="M 202.484375 143.367188 C 202.960938 143.367188 203.410156 143.511719 203.824219 143.796875 C 205.753906 145.105469 206.273438 149.027344 206.296875 149.195312 L 207.535156 163.742188 L 210.40625 142.597656 C 210.863281 134.628906 206 132.699219 204.867188 132.355469 L 202.210938 143.386719 C 202.300781 143.375 202.394531 143.367188 202.484375 143.367188 Z M 207.726562 166.066406 L 207.226562 166.035156 L 205.796875 149.25 C 205.792969 149.222656 205.28125 145.394531 203.546875 144.210938 C 203.058594 143.882812 202.535156 143.789062 201.933594 143.945312 L 201.53125 144.054688 L 204.492188 131.753906 L 204.730469 131.800781 C 204.796875 131.8125 211.449219 133.21875 210.910156 142.652344 L 207.726562 166.066406"/><path fill="#1B1919" d="M 202.464844 143.367188 C 202.976562 143.367188 203.460938 143.523438 203.898438 143.839844 C 205.785156 145.1875 206.261719 148.988281 206.277344 149.148438 L 207.34375 161.558594 L 207.769531 146.492188 C 207.773438 146.445312 208.128906 141.894531 206.300781 140.828125 C 205.519531 140.375 204.40625 140.625 202.988281 141.585938 L 202.324219 143.371094 C 202.371094 143.367188 202.417969 143.367188 202.464844 143.367188 Z M 207.222656 166.019531 L 205.78125 149.203125 C 205.773438 149.175781 205.308594 145.464844 203.605469 144.25 C 203.117188 143.902344 202.589844 143.796875 201.992188 143.925781 L 201.542969 144.023438 L 202.578125 141.257812 L 202.640625 141.214844 C 204.265625 140.097656 205.578125 139.824219 206.550781 140.394531 C 208.632812 141.605469 208.292969 146.242188 208.269531 146.527344 L 207.722656 166.003906 L 207.222656 166.019531"/><path fill="#1B1919" d="M 178.113281 132.070312 C 176.964844 132.402344 172.132812 134.300781 172.660156 142.382812 L 175.703125 163.476562 L 176.824219 148.933594 C 176.84375 148.757812 177.332031 144.828125 179.246094 143.5 C 179.742188 143.164062 180.28125 143.023438 180.859375 143.082031 Z M 175.535156 165.832031 L 175.527344 165.777344 L 172.160156 142.433594 C 171.539062 132.992188 178.183594 131.527344 178.246094 131.515625 L 178.484375 131.46875 L 181.546875 143.742188 L 181.140625 143.640625 C 180.542969 143.492188 180.023438 143.582031 179.535156 143.917969 C 177.804688 145.117188 177.332031 148.945312 177.320312 148.980469 L 176.03125 165.785156 L 175.839844 165.769531 L 175.535156 165.832031"/><path fill="#1B1919" d="M 177.625 140.332031 C 177.296875 140.332031 177.007812 140.40625 176.753906 140.558594 C 174.929688 141.640625 175.324219 146.1875 175.328125 146.234375 L 175.328125 146.246094 L 175.875 161.296875 L 176.835938 148.890625 C 176.855469 148.71875 177.304688 144.910156 179.175781 143.550781 C 179.65625 143.203125 180.203125 143.039062 180.75 143.070312 L 180.066406 141.285156 C 179.109375 140.652344 178.289062 140.332031 177.625 140.332031 Z M 176.035156 165.757812 L 175.535156 165.742188 L 174.828125 146.273438 C 174.804688 145.988281 174.421875 141.355469 176.496094 140.125 C 177.464844 139.546875 178.785156 139.808594 180.414062 140.910156 L 180.476562 140.957031 L 181.535156 143.714844 L 181.085938 143.617188 C 180.480469 143.492188 179.957031 143.605469 179.476562 143.953125 C 177.777344 145.191406 177.34375 148.898438 177.339844 148.9375 L 176.035156 165.757812"/><path fill="#1B1919" d="M 185.703125 160.644531 C 186.214844 161.519531 187.851562 162.152344 190.027344 162.292969 C 192.90625 162.492188 195.644531 161.789062 196.515625 160.65625 C 196.226562 160.050781 194.980469 157.523438 194.429688 156.828125 L 187.941406 156.808594 C 187.347656 157.691406 185.976562 160.117188 185.703125 160.644531 Z M 190.933594 162.828125 C 190.617188 162.828125 190.300781 162.820312 189.996094 162.800781 C 187.515625 162.636719 185.722656 161.871094 185.195312 160.761719 C 185.054688 160.464844 187.578125 156.445312 187.601562 156.414062 L 187.679688 156.304688 L 194.660156 156.320312 L 194.730469 156.402344 C 194.761719 156.433594 197.226562 160.46875 197.019531 160.816406 C 196.132812 162.1875 193.441406 162.828125 190.933594 162.828125"/><path fill="#1B1919" d="M 187.914062 156.308594 L 194.40625 156.328125 C 194.957031 155.511719 195.902344 153.804688 196.496094 152.734375 L 185.945312 152.707031 L 186.070312 152.957031 C 186.582031 153.996094 187.421875 155.699219 187.914062 156.308594 Z M 194.667969 156.832031 L 187.6875 156.8125 L 187.613281 156.730469 C 187.085938 156.15625 186.203125 154.367188 185.617188 153.183594 L 185.132812 152.203125 L 197.355469 152.234375 L 196.96875 152.929688 C 196.34375 154.050781 195.304688 155.925781 194.746094 156.722656 L 194.667969 156.832031"/><g clip-path="url(#a)"><path fill="#1B1919" d="M 185.777344 152.335938 C 186.84375 152.59375 188.015625 152.503906 189.261719 152.417969 C 189.914062 152.367188 190.589844 152.320312 191.28125 152.320312 C 191.289062 152.320312 191.300781 152.320312 191.3125 152.320312 C 191.96875 152.320312 192.605469 152.359375 193.222656 152.398438 C 194.464844 152.472656 195.640625 152.546875 196.75 152.292969 C 198.933594 149.429688 201.015625 144.96875 202.464844 140.042969 C 204.6875 132.359375 205.71875 125.097656 205.546875 118.46875 C 205.511719 117.082031 205.40625 115.671875 205.234375 114.277344 C 204.585938 109.046875 203.199219 104.410156 201.109375 100.5 C 197.960938 94.605469 194.789062 90.742188 191.929688 89.324219 C 188.9375 90.652344 184.703125 95.441406 183.269531 98.082031 C 183.171875 98.253906 183.078125 98.429688 182.988281 98.605469 C 178.496094 107.183594 176.78125 117.199219 178.023438 127.5625 C 178.539062 131.878906 179.363281 136.054688 180.476562 139.988281 C 182.148438 145.769531 183.882812 149.808594 185.777344 152.335938 Z M 187.433594 153.015625 C 186.792969 153.015625 186.167969 152.960938 185.566406 152.800781 L 185.480469 152.78125 L 185.429688 152.710938 C 183.472656 150.136719 181.695312 146.023438 179.992188 140.125 C 178.871094 136.164062 178.042969 131.964844 177.523438 127.628906 C 176.265625 117.15625 178.003906 107.039062 182.539062 98.375 C 182.636719 98.191406 182.730469 98.015625 182.824219 97.839844 C 184.308594 95.109375 188.742188 90.117188 191.835938 88.808594 L 191.9375 88.765625 L 192.042969 88.816406 C 195.03125 90.242188 198.320312 94.199219 201.550781 100.257812 C 203.675781 104.226562 205.082031 108.921875 205.730469 114.214844 C 205.910156 115.628906 206.015625 117.054688 206.050781 118.457031 C 206.226562 125.140625 205.179688 132.449219 202.949219 140.183594 C 201.464844 145.210938 199.335938 149.761719 197.097656 152.667969 L 197.039062 152.742188 L 196.957031 152.765625 C 195.742188 153.058594 194.503906 152.980469 193.191406 152.902344 C 192.578125 152.863281 191.953125 152.824219 191.308594 152.824219 C 191.300781 152.824219 191.289062 152.824219 191.28125 152.824219 C 190.613281 152.824219 189.941406 152.871094 189.296875 152.917969 C 188.65625 152.96875 188.039062 153.015625 187.433594 153.015625"/></g><path fill="#1B1919" d="M 196.898438 160.226562 L 196.878906 160.117188 L 196.847656 160.117188 C 196.863281 160.152344 196.878906 160.191406 196.898438 160.226562"/><path fill="#1B1919" d="M 185.40625 160.085938 L 185.351562 160.085938 L 185.320312 160.253906 C 185.347656 160.203125 185.378906 160.144531 185.40625 160.085938"/><path fill="#1B1919" d="M 197.164062 162.050781 C 197.117188 161.667969 197.0625 161.289062 197 160.902344 C 196.433594 161.703125 195.25 162.242188 193.859375 162.546875 C 193.953125 164.535156 193.558594 166.4375 192.6875 168.101562 L 192.628906 168.210938 C 192.335938 168.746094 191.566406 169.589844 191.019531 169.9375 C 190.492188 169.578125 189.878906 168.785156 189.277344 167.65625 C 188.824219 166.804688 188.519531 165.792969 188.378906 164.644531 C 188.34375 164.335938 188.316406 164.03125 188.308594 163.71875 C 188.300781 163.359375 188.3125 162.984375 188.335938 162.601562 C 186.777344 162.28125 185.671875 161.671875 185.222656 160.875 C 184.9375 162.609375 184.804688 164.269531 184.84375 165.820312 C 184.859375 166.410156 184.902344 167 184.976562 167.578125 C 185.25 169.769531 185.828125 171.714844 186.710938 173.371094 C 188.082031 175.933594 189.4375 177.550781 190.742188 178.171875 L 190.933594 178.265625 L 191.132812 178.179688 C 192.507812 177.601562 194.355469 175.492188 194.972656 174.351562 L 195.089844 174.128906 C 196.96875 170.550781 197.679688 166.375 197.164062 162.050781"/><path fill="#1B1919" d="M 201.867188 101.050781 C 201.867188 101.019531 201.875 100.984375 201.875 100.957031 C 201.757812 100.820312 201.636719 100.691406 201.507812 100.566406 C 201.457031 100.554688 201.410156 100.542969 201.359375 100.53125 L 201.367188 100.550781 C 198.535156 101.617188 195.242188 102.183594 191.835938 102.183594 L 191.761719 102.183594 C 191.007812 102.179688 190.238281 102.144531 189.402344 102.074219 C 186.734375 101.863281 184.160156 101.289062 181.953125 100.417969 C 182.007812 100.304688 182.058594 100.199219 182.109375 100.09375 C 182.097656 100.109375 182.089844 100.125 182.074219 100.144531 C 181.847656 100.417969 181.699219 100.726562 181.59375 101.058594 C 183.886719 101.976562 186.566406 102.578125 189.34375 102.804688 C 190.199219 102.875 190.988281 102.90625 191.761719 102.910156 L 191.835938 102.910156 C 195.375 102.910156 198.800781 102.316406 201.742188 101.1875 L 201.882812 101.132812 C 201.878906 101.101562 201.867188 101.082031 201.867188 101.050781"/><path fill="#1B1919" d="M 191.660156 121.070312 C 190.09375 121.042969 188.644531 120.410156 187.570312 119.285156 C 186.550781 118.226562 185.996094 116.851562 185.980469 115.390625 C 186.144531 112.328125 188.699219 109.90625 191.792969 109.90625 C 191.832031 109.90625 191.863281 109.90625 191.898438 109.90625 C 193.460938 109.9375 194.914062 110.566406 195.988281 111.691406 C 197.003906 112.75 197.5625 114.125 197.578125 115.585938 C 197.414062 118.667969 194.8125 121.152344 191.660156 121.070312 Z M 197.417969 109.949219 C 195.980469 108.449219 194.035156 107.601562 191.945312 107.566406 C 191.640625 107.558594 191.34375 107.574219 191.046875 107.601562 L 191.042969 107.601562 C 187.195312 107.972656 184.09375 111.199219 184.007812 115.15625 C 183.964844 117.214844 184.722656 119.164062 186.148438 120.652344 C 187.585938 122.148438 189.53125 122.996094 191.625 123.035156 C 191.664062 123.035156 191.703125 123.035156 191.734375 123.035156 C 195.972656 123.035156 199.46875 119.652344 199.558594 115.4375 C 199.601562 113.382812 198.84375 111.4375 197.417969 109.949219"/><path fill="#1B1919" d="M 152.996094 190.339844 C 144.5625 190.339844 137.355469 196.195312 135.542969 204.378906 L 136.445312 204.378906 C 138.238281 196.695312 145.042969 191.210938 152.996094 191.210938 C 153.449219 191.210938 153.902344 191.238281 154.351562 191.277344 C 154.410156 190.980469 154.503906 190.695312 154.625 190.417969 C 154.085938 190.367188 153.542969 190.339844 152.996094 190.339844"/><g clip-path="url(#b)"><path fill="#1B1919" d="M 201.699219 182.601562 C 208.738281 182.601562 215.097656 186.722656 217.996094 193.125 C 225.242188 191.417969 232.429688 194.375 236.570312 200.160156 C 239.875 197.144531 244.128906 195.492188 248.597656 195.492188 C 251.0625 195.492188 253.519531 196 255.777344 196.992188 C 257.960938 197.957031 259.953125 199.363281 261.597656 201.105469 C 263.246094 202.847656 264.542969 204.921875 265.386719 207.171875 C 265.757812 208.171875 266.042969 209.207031 266.230469 210.253906 C 266.328125 210.785156 266.398438 211.316406 266.445312 211.855469 C 266.488281 212.324219 266.667969 213.121094 266.265625 213.472656 C 266.222656 213.515625 266.171875 213.542969 266.117188 213.566406 C 265.460938 213.800781 265.617188 212.464844 265.589844 212.132812 C 265.542969 211.511719 265.460938 210.894531 265.347656 210.28125 C 265.121094 209.085938 264.765625 207.910156 264.292969 206.792969 C 263.363281 204.59375 261.960938 202.597656 260.222656 200.96875 C 258.480469 199.335938 256.394531 198.074219 254.140625 197.292969 C 252.363281 196.679688 250.480469 196.367188 248.597656 196.367188 C 244.1875 196.367188 239.996094 198.058594 236.804688 201.140625 L 236.429688 201.5 L 236.140625 201.070312 C 232.1875 195.214844 225.035156 192.222656 217.855469 194.066406 L 217.492188 194.15625 L 217.347656 193.816406 C 214.65625 187.53125 208.511719 183.476562 201.699219 183.476562 C 199.449219 183.476562 197.292969 183.9375 195.300781 184.753906 C 195.308594 184.445312 195.304688 184.140625 195.277344 183.828125 C 197.289062 183.046875 199.449219 182.601562 201.699219 182.601562"/></g><path fill="#1B1919" d="M 221.128906 208.78125 L 221.503906 208.417969 C 223.28125 206.703125 225.613281 205.757812 228.066406 205.757812 C 228.308594 205.757812 228.507812 205.566406 228.507812 205.324219 C 228.507812 205.082031 228.308594 204.882812 228.066406 204.882812 C 225.554688 204.882812 223.160156 205.789062 221.269531 207.449219 C 218.878906 204.253906 214.859375 202.617188 210.800781 203.515625 C 209.089844 199.886719 205.453125 197.5625 201.4375 197.5625 C 196.875 197.5625 192.851562 200.578125 191.53125 204.925781 L 181.488281 204.886719 L 181.484375 204.886719 C 181.246094 204.886719 181.050781 205.085938 181.050781 205.324219 C 181.050781 205.570312 181.246094 205.761719 181.484375 205.761719 L 191.46875 205.796875 L 191.480469 205.863281 L 191.890625 205.800781 L 192.367188 205.800781 L 192.316406 205.363281 C 193.464844 201.28125 197.195312 198.441406 201.4375 198.441406 C 205.226562 198.441406 208.648438 200.703125 210.144531 204.195312 L 210.296875 204.542969 L 210.65625 204.445312 C 214.65625 203.417969 218.636719 205.085938 220.839844 208.351562 L 221.128906 208.78125"/><path fill="#1B1919" d="M 169.257812 199.683594 C 169.058594 199.683594 168.882812 199.550781 168.832031 199.347656 C 168.550781 198.203125 168.746094 196.96875 169.351562 196.042969 C 170.015625 195.039062 171.1875 194.421875 172.324219 194.453125 C 173.5625 194.496094 174.6875 195.324219 175.054688 196.460938 C 175.125 196.691406 175 196.9375 174.773438 197.011719 C 174.546875 197.089844 174.296875 196.964844 174.222656 196.730469 C 173.972656 195.953125 173.160156 195.363281 172.292969 195.332031 C 171.460938 195.296875 170.582031 195.773438 170.085938 196.527344 C 169.605469 197.25 169.460938 198.222656 169.679688 199.140625 C 169.742188 199.378906 169.597656 199.613281 169.363281 199.671875 C 169.328125 199.679688 169.292969 199.683594 169.257812 199.683594"/><path fill="#1B1919" d="M 154.183594 194.585938 C 153.992188 194.585938 153.820312 194.464844 153.765625 194.277344 C 153.339844 192.898438 153.476562 191.378906 154.140625 190.101562 C 154.996094 188.457031 156.644531 187.410156 158.546875 187.3125 C 160.445312 187.21875 162.179688 188.074219 163.195312 189.613281 C 163.972656 190.789062 164.230469 192.222656 164 194.128906 C 163.972656 194.367188 163.761719 194.539062 163.515625 194.511719 C 163.277344 194.484375 163.105469 194.265625 163.136719 194.023438 C 163.335938 192.339844 163.125 191.089844 162.46875 190.097656 C 161.625 188.820312 160.175781 188.101562 158.589844 188.1875 C 157 188.269531 155.628906 189.140625 154.914062 190.507812 C 154.359375 191.582031 154.242188 192.859375 154.597656 194.019531 C 154.667969 194.246094 154.539062 194.492188 154.3125 194.566406 C 154.269531 194.578125 154.226562 194.585938 154.183594 194.585938"/><path fill="#1B1919" d="M 199.863281 195.476562 C 199.8125 195.476562 199.761719 195.46875 199.710938 195.453125 C 199.484375 195.367188 199.367188 195.117188 199.457031 194.886719 C 200.117188 193.121094 201.824219 191.785156 203.695312 191.566406 C 205.570312 191.351562 207.527344 192.265625 208.574219 193.835938 C 208.707031 194.039062 208.65625 194.3125 208.453125 194.445312 C 208.25 194.578125 207.980469 194.523438 207.847656 194.324219 C 206.976562 193.015625 205.347656 192.261719 203.792969 192.4375 C 202.238281 192.621094 200.824219 193.726562 200.273438 195.199219 C 200.203125 195.371094 200.039062 195.476562 199.863281 195.476562"/><path fill="#1B1919" d="M 179.539062 189.746094 C 178.160156 188.984375 176.539062 188.476562 174.875 188.378906 C 171.265625 188.167969 166.0625 189.355469 163.277344 193.386719 C 163.140625 193.585938 163.191406 193.859375 163.390625 193.996094 C 163.46875 194.046875 163.554688 194.074219 163.640625 194.074219 C 163.777344 194.074219 163.910156 194.011719 163.996094 193.882812 C 166.410156 190.390625 171.179688 189.046875 174.824219 189.253906 C 176.476562 189.351562 178.136719 189.890625 179.464844 190.703125 C 179.503906 190.386719 179.53125 190.066406 179.539062 189.746094"/><path fill="#1B1919" d="M 180.828125 191.378906 C 180.5625 191.378906 180.300781 191.285156 180.085938 191.113281 C 179.652344 190.769531 179.085938 190.457031 178.449219 190.207031 L 178.78125 189.367188 C 179.496094 189.648438 180.140625 190.007812 180.640625 190.40625 C 180.71875 190.46875 180.8125 190.492188 180.898438 190.464844 C 180.984375 190.441406 181.050781 190.378906 181.089844 190.285156 C 181.394531 189.484375 182.023438 188.746094 182.8125 188.25 C 184.3125 187.300781 186.207031 187.234375 187.757812 188.085938 C 187.882812 188.148438 188.007812 188.238281 188.132812 188.328125 C 188.542969 188.617188 188.570312 188.585938 188.636719 188.527344 C 191.171875 186.117188 194 183.792969 197.53125 183.136719 L 197.695312 184.023438 C 194.398438 184.640625 191.6875 186.863281 189.257812 189.183594 C 188.628906 189.78125 187.964844 189.316406 187.613281 189.0625 C 187.515625 188.996094 187.421875 188.925781 187.328125 188.875 C 186.066406 188.183594 184.515625 188.238281 183.289062 189.015625 C 182.664062 189.40625 182.164062 189.988281 181.929688 190.605469 C 181.785156 190.96875 181.5 191.238281 181.132812 191.335938 C 181.035156 191.363281 180.929688 191.378906 180.828125 191.378906"/><g clip-path="url(#c)"><path fill="#1B1919" d="M 135.628906 203.9375 L 135.582031 204.15625 C 131.941406 202.730469 127.644531 202.964844 123.96875 204.808594 C 120.230469 206.679688 117.5625 209.742188 116.535156 213.28125 L 116.535156 214.082031 L 117.222656 214.230469 C 118.007812 210.640625 120.613281 207.496094 124.367188 205.617188 C 127.984375 203.804688 132.230469 203.648438 135.730469 205.195312 L 136.238281 205.417969 L 136.507812 204.121094 L 135.628906 203.9375"/></g><g fill="#1B1919"><use x="31.443" y="266.602" xmlns:xlink="http://www.w3.org/1999/xlink" xlink:href="#d" xlink:type="simple" xlink:actuate="onLoad" xlink:show="embed"/></g><g fill="#1B1919"><use x="104.031" y="266.602" xmlns:xlink="http://www.w3.org/1999/xlink" xlink:href="#e" xlink:type="simple" xlink:actuate="onLoad" xlink:show="embed"/></g><g fill="#1B1919"><use x="115.75" y="266.602" xmlns:xlink="http://www.w3.org/1999/xlink" xlink:href="#f" xlink:type="simple" xlink:actuate="onLoad" xlink:show="embed"/></g><g fill="#1B1919"><use x="131.817" y="266.602" xmlns:xlink="http://www.w3.org/1999/xlink" xlink:href="#g" xlink:type="simple" xlink:actuate="onLoad" xlink:show="embed"/></g><g fill="#1B1919"><use x="151.526" y="266.602" xmlns:xlink="http://www.w3.org/1999/xlink" xlink:href="#h" xlink:type="simple" xlink:actuate="onLoad" xlink:show="embed"/></g><g fill="#1B1919"><use x="162.539" y="266.602" xmlns:xlink="http://www.w3.org/1999/xlink" xlink:href="#i" xlink:type="simple" xlink:actuate="onLoad" xlink:show="embed"/></g><g fill="#1B1919"><use x="177.171" y="266.602" xmlns:xlink="http://www.w3.org/1999/xlink" xlink:href="#j" xlink:type="simple" xlink:actuate="onLoad" xlink:show="embed"/></g><g fill="#1B1919"><use x="189.398" y="266.602" xmlns:xlink="http://www.w3.org/1999/xlink" xlink:href="#k" xlink:type="simple" xlink:actuate="onLoad" xlink:show="embed"/></g><g fill="#1B1919"><use x="202.242" y="266.602" xmlns:xlink="http://www.w3.org/1999/xlink" xlink:href="#l" xlink:type="simple" xlink:actuate="onLoad" xlink:show="embed"/></g><g fill="#1B1919"><use x="265.12" y="266.602" xmlns:xlink="http://www.w3.org/1999/xlink" xlink:href="#e" xlink:type="simple" xlink:actuate="onLoad" xlink:show="embed"/></g><g fill="#1B1919"><use x="276.839" y="266.602" xmlns:xlink="http://www.w3.org/1999/xlink" xlink:href="#m" xlink:type="simple" xlink:actuate="onLoad" xlink:show="embed"/></g><g fill="#1B1919"><use x="300.189" y="266.602" xmlns:xlink="http://www.w3.org/1999/xlink" xlink:href="#k" xlink:type="simple" xlink:actuate="onLoad" xlink:show="embed"/></g><g fill="#1B1919"><use x="313.033" y="266.602" xmlns:xlink="http://www.w3.org/1999/xlink" xlink:href="#n" xlink:type="simple" xlink:actuate="onLoad" xlink:show="embed"/></g><g fill="#1B1919"><use x="324.068" y="266.602" xmlns:xlink="http://www.w3.org/1999/xlink" xlink:href="#o" xlink:type="simple" xlink:actuate="onLoad" xlink:show="embed"/></g><g fill="#1B1919"><use x="338.789" y="266.602" xmlns:xlink="http://www.w3.org/1999/xlink" xlink:href="#k" xlink:type="simple" xlink:actuate="onLoad" xlink:show="embed"/></g></svg>